<svg version="1.1" xmlns="http://www.w3.org/2000/svg" xmlns:xlink="http://www.w3.org/1999/xlink" width="500" height="500"><g data-paper-data="{&quot;description&quot;:&quot;Logo for Next Clean Blog\n========================\n\nThis logo was generated by MarkMaker at http://emblemmatic.org/markmaker/ and may be composed of elements designed by others.\n\nThe font is Martel Sans Light designed by Dan Reynolds and Mathieu Réguer and released under the OFL license via Google Fonts: https://www.google.com/fonts/specimen/Martel%20Sans. The font includes this copyright statement: Copyright (c) 2014 Dan Reynolds. Copyright (c) 2014 Mathieu Reguer.\n\nMarkMaker uses semantic data from the Princeton University WordNet database http://wordnet.princeton.edu and font descriptions from Google Fonts https://www.google.com/fonts.&quot;}" fill="#484646" fill-rule="nonzero" stroke="none" stroke-width="1" stroke-linecap="butt" stroke-linejoin="miter" stroke-miterlimit="10" stroke-dasharray="" stroke-dashoffset="0" font-family="none" font-weight="none" font-size="none" text-anchor="none" style="mix-blend-mode: normal"><g data-paper-data="{&quot;elementType&quot;:&quot;logo&quot;}"><g data-paper-data="{&quot;elementType&quot;:&quot;text&quot;}"><g data-paper-data="{&quot;baseline&quot;:69.3,&quot;elementType&quot;:&quot;row&quot;}"><g data-paper-data="{&quot;baselineProportion&quot;:0.998531571218796,&quot;fontSize&quot;:100,&quot;baseline&quot;:68,&quot;elementType&quot;:&quot;word&quot;}"><path d="M75.42262,233.83273v32.19252l-3.17191,0.04734l-18.74741,-26.13275l0.18937,11.36207v14.72334h-3.69267v-32.19252h3.12457l18.74741,26.18009l-0.14203,-12.87701v-13.30308z" data-paper-data="{&quot;elementType&quot;:&quot;letter&quot;,&quot;baseline&quot;:68,&quot;baselineProportion&quot;:0.998531571218796,&quot;fontSize&quot;:100}"></path><path d="M105.67412,263.18473v2.84052h-19.41019v-32.19252h18.46336v2.84052h-14.77068v10.88865h12.87701v2.84052h-12.87701v12.78232z" data-paper-data="{&quot;elementType&quot;:&quot;letter&quot;,&quot;baseline&quot;:68,&quot;baselineProportion&quot;:1,&quot;fontSize&quot;:100}"></path><path d="M135.07346,266.02525l-10.13117,-14.20258l-10.17852,14.20258h-4.45014l12.21422,-16.66436l-11.36207,-15.52816h4.4028l9.3737,13.11372l9.32636,-13.11372h4.4028l-11.36207,15.52816l12.21422,16.66436z" data-paper-data="{&quot;elementType&quot;:&quot;letter&quot;,&quot;baseline&quot;:68,&quot;baselineProportion&quot;:1,&quot;fontSize&quot;:100}"></path><path d="M169.15966,236.67324h-11.12536v29.352h-3.69267v-29.352h-11.22004v-2.84052h26.03807z" data-paper-data="{&quot;elementType&quot;:&quot;letter&quot;,&quot;baseline&quot;:68,&quot;baselineProportion&quot;:1,&quot;fontSize&quot;:100}"></path></g><g data-paper-data="{&quot;baselineProportion&quot;:0.9788135593220338,&quot;fontSize&quot;:100,&quot;baseline&quot;:69.3,&quot;elementType&quot;:&quot;word&quot;}"><path d="M194.25487,266.73538c-3.47174,0 -6.40694,-0.77325 -8.8056,-2.31976c-2.39866,-1.5465 -4.18976,-3.59799 -5.37331,-6.15445c-1.18355,-2.55646 -1.77532,-5.34964 -1.77532,-8.37952c0,-3.02988 0.62334,-5.80728 1.87001,-8.33218c1.24667,-2.5249 3.10879,-4.54483 5.58635,-6.05977c2.47756,-1.51494 5.49956,-2.27241 9.06598,-2.27241c2.14617,0 4.16609,0.36295 6.05977,1.08886c1.89368,0.72591 3.47174,1.75165 4.73419,3.07723l-1.75165,2.3671c-1.00996,-1.10465 -2.33554,-1.98836 -3.97672,-2.65115c-1.64119,-0.66279 -3.32972,-0.99418 -5.06559,-0.99418c-2.71427,0 -5.03403,0.59966 -6.95927,1.79899c-1.92524,1.19933 -3.38495,2.84841 -4.37913,4.94723c-0.99418,2.09883 -1.49127,4.45803 -1.49127,7.07762c0,2.68271 0.47342,5.07348 1.42026,7.1723c0.94684,2.09883 2.33554,3.75579 4.16609,4.9709c1.83055,1.21511 4.05563,1.82266 6.67521,1.82266c3.97672,0 7.4169,-1.62541 10.32054,-4.87622l1.60963,2.31976c-1.42026,1.57806 -3.14035,2.87208 -5.16027,3.88204c-2.01992,1.00996 -4.27656,1.51494 -6.7699,1.51494z" data-paper-data="{&quot;elementType&quot;:&quot;letter&quot;,&quot;baseline&quot;:69.3,&quot;baselineProportion&quot;:0.9788135593220338,&quot;fontSize&quot;:100}"></path><path d="M233.35931,263.18473v2.84052h-19.41019v-32.19252h3.69267v29.352z" data-paper-data="{&quot;elementType&quot;:&quot;letter&quot;,&quot;baseline&quot;:68,&quot;baselineProportion&quot;:1,&quot;fontSize&quot;:100}"></path><path d="M259.82345,263.18473v2.84052h-19.41019v-32.19252h18.46336v2.84052h-14.77068v10.88865h12.87701v2.84052h-12.87701v12.78232z" data-paper-data="{&quot;elementType&quot;:&quot;letter&quot;,&quot;baseline&quot;:68,&quot;baselineProportion&quot;:1,&quot;fontSize&quot;:100}"></path><path d="M284.34658,255.61002h-13.25574l-3.88204,10.41523h-3.64533l12.49827,-32.6186h3.36128l12.54561,32.6186h-3.74001l-3.88204,-10.41523M283.25771,252.7695l-5.53901,-14.86537l-5.58635,14.86537z" data-paper-data="{&quot;elementType&quot;:&quot;letter&quot;,&quot;baseline&quot;:68.9,&quot;baselineProportion&quot;:1,&quot;fontSize&quot;:100}"></path><path d="M323.8771,233.83273v32.19252l-3.17191,0.04734l-18.74741,-26.13275l0.18937,11.36207v14.72334h-3.69267v-32.19252h3.12457l18.74741,26.18009l-0.14203,-12.87701v-13.30308z" data-paper-data="{&quot;elementType&quot;:&quot;letter&quot;,&quot;baseline&quot;:68,&quot;baselineProportion&quot;:0.998531571218796,&quot;fontSize&quot;:100}"></path></g><g data-paper-data="{&quot;baselineProportion&quot;:0.9774330042313117,&quot;fontSize&quot;:100,&quot;baseline&quot;:69.3,&quot;elementType&quot;:&quot;word&quot;}"><path d="M347.97812,249.07683c2.20929,0.47342 3.89782,1.42026 5.06559,2.84052c1.16777,1.42026 1.75165,3.15613 1.75165,5.20761c0,2.68271 -0.9784,4.83677 -2.9352,6.46217c-1.9568,1.62541 -4.74997,2.43811 -8.37952,2.43811h-10.46257v-32.19252h10.46257c3.18769,0 5.63369,0.7338 7.338,2.2014c1.70431,1.4676 2.55646,3.47963 2.55646,6.0361c0,1.67275 -0.46553,3.13246 -1.39659,4.37913c-0.93106,1.24667 -2.26452,2.1225 -4.00039,2.62748M343.48064,263.18473c2.43022,0 4.30812,-0.5681 5.63369,-1.70431c1.32557,-1.13621 1.98836,-2.68271 1.98836,-4.63951c0,-2.11461 -0.64701,-3.69267 -1.94102,-4.73419c-1.29401,-1.04152 -3.18769,-1.56228 -5.68103,-1.56228h-6.7699v12.6403zM336.71074,236.67324v11.03067h6.7699c1.9568,0 3.47963,-0.4892 4.5685,-1.4676c1.08886,-0.9784 1.6333,-2.31976 1.6333,-4.02406c0,-1.86212 -0.52865,-3.25081 -1.58595,-4.16609c-1.0573,-0.91528 -2.59592,-1.37292 -4.61584,-1.37292h-6.7699" data-paper-data="{&quot;elementType&quot;:&quot;letter&quot;,&quot;baseline&quot;:68,&quot;baselineProportion&quot;:1,&quot;fontSize&quot;:100}"></path><path d="M381.92229,263.18473v2.84052h-19.41019v-32.19252h3.69267v29.352z" data-paper-data="{&quot;elementType&quot;:&quot;letter&quot;,&quot;baseline&quot;:68,&quot;baselineProportion&quot;:1,&quot;fontSize&quot;:100}"></path><path d="M401.71122,266.78272c-3.31394,0 -6.13078,-0.74958 -8.45054,-2.24874c-2.31976,-1.49916 -4.07141,-3.51908 -5.25496,-6.05977c-1.18355,-2.54068 -1.77532,-5.35753 -1.77532,-8.45054c0,-3.09301 0.59177,-5.91774 1.77532,-8.47421c1.18355,-2.55646 2.9352,-4.58428 5.25496,-6.08344c2.31976,-1.49916 5.1366,-2.24874 8.45054,-2.24874c3.28237,0 6.09133,0.74958 8.42687,2.24874c2.33554,1.49916 4.09508,3.51908 5.27863,6.05977c1.18355,2.54068 1.77532,5.34175 1.77532,8.40319c0,3.12457 -0.59177,5.96508 -1.77532,8.52155c-1.18355,2.55646 -2.94309,4.58428 -5.27863,6.08344c-2.33554,1.49916 -5.14449,2.24874 -8.42687,2.24874M401.71122,263.89486c2.46178,0 4.58428,-0.59966 6.36749,-1.79899c1.78321,-1.19933 3.13246,-2.8563 4.04774,-4.9709c0.91528,-2.11461 1.37292,-4.49748 1.37292,-7.14863c0,-2.65115 -0.45764,-5.02614 -1.37292,-7.12496c-0.91528,-2.09883 -2.26452,-3.7479 -4.04774,-4.94723c-1.78321,-1.19933 -3.90571,-1.79899 -6.36749,-1.79899c-2.46178,0 -4.58428,0.59966 -6.36749,1.79899c-1.78321,1.19933 -3.13246,2.84841 -4.04774,4.94723c-0.91528,2.09883 -1.37292,4.47381 -1.37292,7.12496c0,2.65115 0.45764,5.03403 1.37292,7.14863c0.91528,2.11461 2.26452,3.77157 4.04774,4.9709c1.78321,1.19933 3.90571,1.79899 6.36749,1.79899z" data-paper-data="{&quot;elementType&quot;:&quot;letter&quot;,&quot;baseline&quot;:69.3,&quot;baselineProportion&quot;:0.9774330042313117,&quot;fontSize&quot;:100}"></path><path d="M450,251.11254v13.06638c-1.19933,0.75747 -2.78528,1.37292 -4.75786,1.84634c-1.97258,0.47342 -4.18976,0.71013 -6.65154,0.71013c-3.47174,0 -6.40694,-0.77325 -8.8056,-2.31976c-2.39866,-1.5465 -4.18976,-3.59799 -5.37331,-6.15445c-1.18355,-2.55646 -1.77532,-5.34964 -1.77532,-8.37952c0,-3.02988 0.62334,-5.80728 1.87001,-8.33218c1.24667,-2.5249 3.10879,-4.54483 5.58635,-6.05977c2.47756,-1.51494 5.49956,-2.27241 9.06598,-2.27241c2.14617,0 4.16609,0.36295 6.05977,1.08886c1.89368,0.72591 3.47174,1.75165 4.73419,3.07723l-1.75165,2.3671c-1.00996,-1.10465 -2.33554,-1.98836 -3.97672,-2.65115c-1.64119,-0.66279 -3.32972,-0.99418 -5.06559,-0.99418c-2.71427,0 -5.03403,0.59966 -6.95927,1.79899c-1.92524,1.19933 -3.38495,2.84841 -4.37913,4.94723c-0.99418,2.09883 -1.49127,4.45803 -1.49127,7.07762c0,2.68271 0.47342,5.07348 1.42026,7.1723c0.94684,2.09883 2.33554,3.75579 4.16609,4.9709c1.83055,1.21511 4.05563,1.82266 6.67521,1.82266c3.02988,0 5.64947,-0.39452 7.85876,-1.18355v-11.59878z" data-paper-data="{&quot;elementType&quot;:&quot;letter&quot;,&quot;baseline&quot;:69.3,&quot;baselineProportion&quot;:0.9788135593220338,&quot;fontSize&quot;:100}"></path></g></g></g></g></g></svg>